<svg version="1.1" xmlns="http://www.w3.org/2000/svg" xmlns:xlink="http://www.w3.org/1999/xlink" width="21.23421" height="95.06378" viewBox="0,0,21.23421,95.06378"><g transform="translate(-229.48243,-132.64601)"><g data-paper-data="{&quot;isPaintingLayer&quot;:true}" fill-rule="nonzero" stroke-linecap="butt" stroke-linejoin="miter" stroke-miterlimit="10" stroke-dasharray="" stroke-dashoffset="0" style="mix-blend-mode: normal"><g stroke="none" stroke-width="0"><path d="M240.06371,132.64601c5.67717,0.00883 10.25505,15.686 10.22498,35.01595c-0.03007,19.32995 -4.65669,34.9928 -10.33386,34.98397c-5.67717,-0.00883 -10.25506,-15.686 -10.22499,-35.01595c0.03007,-19.32995 4.6567,-34.9928 10.33387,-34.98397z" fill="#ff0000"/><path d="M240.04816,142.646c4.05512,0.00631 7.32504,11.20429 7.30356,25.01139c-0.02148,13.80711 -3.3262,24.99485 -7.38134,24.98855c-4.05512,-0.00631 -7.32504,-11.20429 -7.30356,-25.01139c0.02148,-13.80711 3.3262,-24.99485 7.38134,-24.98855z" fill="#ff8800"/><path d="M240.03183,153.14599c2.35197,0.00366 4.24852,6.49848 4.23606,14.50661c-0.01246,8.00812 -1.9292,14.49702 -4.28118,14.49336c-2.35197,-0.00366 -4.24852,-6.49848 -4.23606,-14.50661c0.01246,-8.00812 1.9292,-14.49702 4.28118,-14.49336z" fill="#fbff00"/></g><path d="M229.60924,162.73972l20.96765,0.03262l-0.08475,54.48529l-20.96765,-0.03262z" fill="#00fdff" stroke="none" stroke-width="0"/><path d="M239.85698,206.71191l10.26987,10.22485l-10.02398,10.41645l-10.26987,-10.22485z" fill="#00fdff" stroke="#00fbff" stroke-width="0.5"/><text transform="translate(236.43144,168.28707) rotate(90.08912) scale(0.32839,0.32839)" font-size="40" xml:space="preserve" fill="#000000" fill-rule="nonzero" stroke="none" stroke-width="1" stroke-linecap="butt" stroke-linejoin="miter" stroke-miterlimit="10" stroke-dasharray="" stroke-dashoffset="0" font-family="Sans Serif" font-weight="normal" text-anchor="start" style="mix-blend-mode: normal"><tspan x="0" dy="0">SpaceX</tspan></text></g></g></svg>