<svg version="1.1" xmlns="http://www.w3.org/2000/svg" xmlns:xlink="http://www.w3.org/1999/xlink" width="228.5" height="133" viewBox="0,0,228.5,133"><g transform="translate(-119,-71)"><g data-paper-data="{&quot;isPaintingLayer&quot;:true}" fill-rule="nonzero" stroke-linecap="butt" stroke-linejoin="miter" stroke-miterlimit="10" stroke-dasharray="" stroke-dashoffset="0" style="mix-blend-mode: normal"><path d="M242.5,202c-40.86907,0 -74,-29.32535 -74,-65.5c0,-36.17465 33.13093,-65.5 74,-65.5c40.86907,0 74,29.32535 74,65.5c0,36.17465 -33.13093,65.5 -74,65.5z" fill="#00a905" stroke="none" stroke-width="0"/><path d="M240,178c-11.32184,0 -20.5,-16.11775 -20.5,-36c0,-19.88225 9.17816,-36 20.5,-36c11.32184,0 20.5,16.11775 20.5,36c0,19.88225 -9.17816,36 -20.5,36z" fill="#cf783d" stroke="none" stroke-width="0"/><path d="M346.5,180.5c0,12.42641 -46.33853,22.5 -103.5,22.5c-57.16147,0 -103.5,-10.07359 -103.5,-22.5c0,-12.42641 46.33853,-22.5 103.5,-22.5c57.16147,0 103.5,10.07359 103.5,22.5z" fill="#b5b5b5" stroke="#b5b5b5" stroke-width="2"/><path d="M149.5,182.5c0,8.56041 -6.26801,15.5 -14,15.5c-7.73199,0 -14,-6.93959 -14,-15.5c0,-8.56041 6.26801,-15.5 14,-15.5c7.73199,0 14,6.93959 14,15.5z" fill="#000000" stroke="#b5b5b5" stroke-width="5"/><text transform="translate(180.84002,186.26875) scale(0.5,0.5)" font-size="40" xml:space="preserve" fill="#fbff00" fill-rule="nonzero" stroke="none" stroke-width="1" stroke-linecap="butt" stroke-linejoin="miter" stroke-miterlimit="10" stroke-dasharray="" stroke-dashoffset="0" font-family="Sans Serif" font-weight="normal" text-anchor="start" style="mix-blend-mode: normal"><tspan x="0" dy="0">S  P  A  C  E  X</tspan></text><path d="M253.5,102.5c0,9.66498 -6.49187,17.5 -14.5,17.5c-8.00813,0 -14.5,-7.83502 -14.5,-17.5c0,-9.66498 6.49187,-17.5 14.5,-17.5c8.00813,0 14.5,7.83502 14.5,17.5z" fill="#cf783d" stroke="none" stroke-width="0"/><path d="M231,99c0,-1.38071 1.11929,-2.5 2.5,-2.5c1.38071,0 2.5,1.11929 2.5,2.5c0,1.38071 -1.11929,2.5 -2.5,2.5c-1.38071,0 -2.5,-1.11929 -2.5,-2.5z" fill="#000000" stroke="none" stroke-width="0.5"/><path d="M241,99c0,-1.38071 1.11929,-2.5 2.5,-2.5c1.38071,0 2.5,1.11929 2.5,2.5c0,1.38071 -1.11929,2.5 -2.5,2.5c-1.38071,0 -2.5,-1.11929 -2.5,-2.5z" fill="#000000" stroke="none" stroke-width="0.5"/><path d="M199.5,131c0,4.97056 -3.58172,9 -8,9c-4.41828,0 -8,-4.02944 -8,-9c0,-4.97056 3.58172,-9 8,-9c4.41828,0 8,4.02944 8,9z" fill="#000000" stroke="none" stroke-width="0"/><path d="M240.5,132c0,4.41828 -11.41674,8 -25.5,8c-14.08326,0 -25.5,-3.58172 -25.5,-8c0,-4.41828 11.41674,-8 25.5,-8c14.08326,0 25.5,3.58172 25.5,8z" fill="#cf783d" stroke="none" stroke-width="0"/><path d="M206.26777,161.76777c-1.76777,1.76777 -3.53553,0 -3.53553,0l-2.35886,-2.45344c-1.22164,-3.66491 -3.34452,-4.73108 -5.11916,-8.21595c-0.4417,-0.86737 -0.38284,-1.94773 -0.88084,-2.78405c-1.19922,-2.01393 -3.5148,-3.3696 -4.2661,-5.58987c-0.3981,-1.17647 -0.07151,-2.48297 -0.10727,-3.72446c0,0 0,-2.5 2.5,-2.5c2.5,0 2.5,2.5 2.5,2.5c-0.181,3.83965 1.80008,3.66024 3.62663,6.68567c0.58664,0.97169 0.61982,2.19665 1.11916,3.21595c1.53413,3.13161 3.7428,4.36993 4.88084,7.78405l1.64114,1.54656c0,0 1.76777,1.76777 0,3.53553z" fill="#b5b5b5" stroke="none" stroke-width="0.5"/></g></g></svg>