<svg version="1.1" xmlns="http://www.w3.org/2000/svg" xmlns:xlink="http://www.w3.org/1999/xlink" width="21.48228" height="95.06285" viewBox="0,0,21.48228,95.06285"><g transform="translate(-229.2234,-132.29028)"><g data-paper-data="{&quot;isPaintingLayer&quot;:true}" fill-rule="nonzero" stroke-linecap="butt" stroke-linejoin="miter" stroke-miterlimit="10" stroke-dasharray="" stroke-dashoffset="0" style="mix-blend-mode: normal"><g stroke="none" stroke-width="0"><path d="M239.69622,227.35306c-5.67705,-0.03761 -10.17539,-15.73779 -10.04732,-35.06734c0.12807,-19.32955 4.83404,-34.96874 10.51109,-34.93113c5.67705,0.03761 10.1754,15.73779 10.04733,35.06734c-0.12807,19.32955 -4.83405,34.96874 -10.5111,34.93113z" fill="#ff0000"/><path d="M239.76247,217.35328c-4.05504,-0.02687 -7.26814,-11.24128 -7.17666,-25.0481c0.09148,-13.80682 3.45288,-24.97767 7.50793,-24.95081c4.05504,0.02687 7.26814,11.24128 7.17666,25.0481c-0.09148,13.80682 -3.45288,24.97767 -7.50793,24.95081z" fill="#ff8800"/><path d="M239.83203,206.85351c-2.35192,-0.01558 -4.21552,-6.51994 -4.16246,-14.5279c0.05306,-8.00795 2.00267,-14.48705 4.3546,-14.47147c2.35192,0.01558 4.21552,6.51994 4.16246,14.5279c-0.05306,8.00795 -2.00267,14.48705 -4.3546,14.47147z" fill="#fbff00"/></g><path d="M250.30312,197.31274l-20.96722,-0.13892l0.36098,-54.48416l20.96722,0.13892z" fill="#ffffff" stroke="none" stroke-width="0"/><path d="M240.27845,153.28916l-10.2179,-10.27678l10.07666,-10.3655l10.2179,10.27678z" fill="#ffffff" stroke="#ffffff" stroke-width="0.5"/><text transform="translate(243.50914,191.73088) rotate(-89.6204) scale(0.32839,0.32839)" font-size="40" xml:space="preserve" fill="#000000" fill-rule="nonzero" stroke="none" stroke-width="1" stroke-linecap="butt" stroke-linejoin="miter" stroke-miterlimit="10" stroke-dasharray="" stroke-dashoffset="0" font-family="Sans Serif" font-weight="normal" text-anchor="start" style="mix-blend-mode: normal"><tspan x="0" dy="0">Spamo</tspan></text></g></g></svg>