<svg version="1.1" xmlns="http://www.w3.org/2000/svg" xmlns:xlink="http://www.w3.org/1999/xlink" width="228.5" height="133" viewBox="0,0,228.5,133"><g transform="translate(-120.5,-71)"><g data-paper-data="{&quot;isPaintingLayer&quot;:true}" fill-rule="nonzero" stroke-linecap="butt" stroke-linejoin="miter" stroke-miterlimit="10" stroke-dasharray="" stroke-dashoffset="0" style="mix-blend-mode: normal"><path d="M151.5,136.5c0,-36.17465 33.13093,-65.5 74,-65.5c40.86907,0 74,29.32535 74,65.5c0,36.17465 -33.13093,65.5 -74,65.5c-40.86907,0 -74,-29.32535 -74,-65.5z" data-paper-data="{&quot;index&quot;:null}" fill="#00a905" stroke="none" stroke-width="0"/><path d="M207.5,142c0,-19.88225 9.17816,-36 20.5,-36c11.32184,0 20.5,16.11775 20.5,36c0,19.88225 -9.17816,36 -20.5,36c-11.32184,0 -20.5,-16.11775 -20.5,-36z" data-paper-data="{&quot;index&quot;:null}" fill="#cf783d" stroke="none" stroke-width="0"/><path d="M225,158c57.16147,0 103.5,10.07359 103.5,22.5c0,12.42641 -46.33853,22.5 -103.5,22.5c-57.16147,0 -103.5,-10.07359 -103.5,-22.5c0,-12.42641 46.33853,-22.5 103.5,-22.5z" data-paper-data="{&quot;index&quot;:null}" fill="#b5b5b5" stroke="#b5b5b5" stroke-width="2"/><path d="M332.5,167c7.73199,0 14,6.93959 14,15.5c0,8.56041 -6.26801,15.5 -14,15.5c-7.73199,0 -14,-6.93959 -14,-15.5c0,-8.56041 6.26801,-15.5 14,-15.5z" data-paper-data="{&quot;index&quot;:null}" fill="#000000" stroke="#b5b5b5" stroke-width="5"/><text transform="translate(287.15998,186.26875) rotate(-180) scale(0.5,-0.5)" font-size="40" xml:space="preserve" data-paper-data="{&quot;index&quot;:null}" fill="#fbff00" fill-rule="nonzero" stroke="none" stroke-width="1" stroke-linecap="butt" stroke-linejoin="miter" stroke-miterlimit="10" stroke-dasharray="" stroke-dashoffset="0" font-family="Sans Serif" font-weight="normal" text-anchor="start" style="mix-blend-mode: normal"><tspan x="0" dy="0">S  P  A  C  E  X</tspan></text><path d="M229,85c8.00813,0 14.5,7.83502 14.5,17.5c0,9.66498 -6.49187,17.5 -14.5,17.5c-8.00813,0 -14.5,-7.83502 -14.5,-17.5c0,-9.66498 6.49187,-17.5 14.5,-17.5z" data-paper-data="{&quot;index&quot;:null}" fill="#cf783d" stroke="none" stroke-width="0"/><path d="M234.5,101.5c-1.38071,0 -2.5,-1.11929 -2.5,-2.5c0,-1.38071 1.11929,-2.5 2.5,-2.5c1.38071,0 2.5,1.11929 2.5,2.5c0,1.38071 -1.11929,2.5 -2.5,2.5z" data-paper-data="{&quot;index&quot;:null}" fill="#000000" stroke="none" stroke-width="0.5"/><path d="M224.5,101.5c-1.38071,0 -2.5,-1.11929 -2.5,-2.5c0,-1.38071 1.11929,-2.5 2.5,-2.5c1.38071,0 2.5,1.11929 2.5,2.5c0,1.38071 -1.11929,2.5 -2.5,2.5z" data-paper-data="{&quot;index&quot;:null}" fill="#000000" stroke="none" stroke-width="0.5"/><path d="M276.5,122c4.41828,0 8,4.02944 8,9c0,4.97056 -3.58172,9 -8,9c-4.41828,0 -8,-4.02944 -8,-9c0,-4.97056 3.58172,-9 8,-9z" data-paper-data="{&quot;index&quot;:null}" fill="#000000" stroke="none" stroke-width="0"/><path d="M253,124c14.08326,0 25.5,3.58172 25.5,8c0,4.41828 -11.41674,8 -25.5,8c-14.08326,0 -25.5,-3.58172 -25.5,-8c0,-4.41828 11.41674,-8 25.5,-8z" data-paper-data="{&quot;index&quot;:null}" fill="#cf783d" stroke="none" stroke-width="0"/><path d="M261.73222,161.76776c-1.76777,-1.76776 0,-3.53553 0,-3.53553l1.64114,-1.54656c1.13804,-3.41412 3.34671,-4.65244 4.88084,-7.78405c0.49934,-1.0193 0.53252,-2.24426 1.11916,-3.21595c1.82655,-3.02543 3.80763,-2.84602 3.62663,-6.68567c0,0 0,-2.5 2.5,-2.5c2.5,0 2.5,2.5 2.5,2.5c-0.03576,1.24149 0.29083,2.54799 -0.10727,3.72446c-0.7513,2.22027 -3.06688,3.57594 -4.2661,5.58987c-0.498,0.83632 -0.43914,1.91668 -0.88084,2.78405c-1.77464,3.48487 -3.89752,4.55104 -5.11916,8.21595l-2.35886,2.45344c0,0 -1.76776,1.76777 -3.53553,0z" data-paper-data="{&quot;index&quot;:null}" fill="#b5b5b5" stroke="none" stroke-width="0.5"/></g></g></svg>